#!OML:ASF H:\MichaelJackson\Top Level 1\Subject 1\Session 1\male.ASF
:FULLY-SPECIFIED
:DEGREES
722
root -8.54029 16.8582 0.996399 -172.43 -6.95674 -175.344
lowerback 3.11468 0.219743 2.63142
upperback 5.34339 0.00239692 -0.822519
thorax 3.77071 -0.0185303 -2.33202
lowerneck -12.0646 -0.331314 2.05787
upperneck 31.4784 -5.15381 3.85124
head 12.5151 -2.47239 0.180013
rclavicle -5.96354e-015 1.74931e-014
rhumerus -77.8415 47.6436 -103.456
rradius 102.62
rwrist 0.445672
rhand 11.0349 -28.6881
rfingers 7.12502
rthumb 36.1073 -54.9782
lclavicle -5.96354e-015 1.74931e-014
lhumerus -1.57172 -25.4693 80.1476
lradius 63.0008
lwrist -7.36619
lhand -45.6344 -23.8576
lfingers 7.12502
lthumb -18.394 5.29275
rfemur -21.7076 -4.03816 26.0576
rtibia 55.2133
rfoot -12.0996 -2.20531
rtoes -19.1575
lfemur -39.2554 3.86086 -17.204
ltibia 39.174
lfoot -7.51077 3.06878
ltoes 7.89631
723
root -8.5161 16.8733 1.09716 -172.318 -6.99032 -175.007
lowerback 3.02473 0.288924 2.83863
upperback 5.35444 0.0902045 -0.667969
thorax 3.83968 0.0316288 -2.28834
lowerneck -12.222 -0.405903 1.94253
upperneck 31.5448 -5.29793 4.00243
head 12.5866 -2.52479 0.234162
rclavicle 5.56597e-015 3.49861e-014
rhumerus -77.3538 49.0202 -102.271
rradius 103.486
rwrist -1.13008
rhand 12.128 -28.6996
rfingers 7.12502
rthumb 37.1418 -54.7272
lclavicle 5.56597e-015 3.49861e-014
lhumerus -2.32584 -25.3995 80.4705
lradius 62.6595
lwrist -7.75838
lhand -45.051 -23.1863
lfingers 7.12502
lthumb -17.8327 6.01603
rfemur -21.1082 -4.43407 26.7628
rtibia 53.5663
rfoot -13.3581 -3.44505
rtoes -17.7663
lfemur -39.8381 3.80418 -16.7517
ltibia 39.1582
lfoot -6.77618 2.98558
ltoes 7.56414
724
root -8.49314 16.8806 1.21434 -172.156 -6.64112 -174.424
lowerback 3.15174 0.438335 3.22559
upperback 5.23243 0.300461 -0.476021
thorax 3.65726 0.146123 -2.3061
lowerneck -12.0476 -0.397708 2.0778
upperneck 31.3746 -5.22594 3.85776
head 12.4696 -2.49601 0.17141
rclavicle 1.31198e-014 -5.56597e-015
rhumerus -76.827 50.4494 -101.114
rradius 104.26
rwrist -2.45139
rhand 13.1748 -28.5647
rfingers 7.12502
rthumb 38.1309 -54.3282
lclavicle 1.31198e-014 -5.56597e-015
lhumerus -3.47608 -24.9804 80.9524
lradius 62.5527
lwrist -8.20241
lhand -44.1534 -22.9307
lfingers 7.12502
lthumb -16.9688 6.34813
rfemur -20.8175 -4.45619 27.7185
rtibia 52.0944
rfoot -14.2315 -4.64298
rtoes -15.8376
lfemur -40.5881 3.88328 -15.9758
ltibia 39.2449
lfoot -5.95383 3.17158
ltoes 7.80365
725
root -8.46876 16.8866 1.32691 -172.025 -6.46497 -173.931
lowerback 3.19223 0.533885 3.54044
upperback 5.18766 0.429478 -0.310955
thorax 3.59966 0.217702 -2.31199
lowerneck -12.0709 -0.426854 2.0919
upperneck 31.2992 -5.27062 3.91509
head 12.4463 -2.5034 0.185409
rclavicle 1.05356e-014 -4.77083e-015
rhumerus -75.9735 51.9283 -99.7396
rradius 104.925
rwrist -3.74617
rhand 14.2498 -28.309
rfingers 7.12502
rthumb 39.145 -53.7873
lclavicle 1.05356e-014 -4.77083e-015
lhumerus -4.47352 -24.694 81.2816
lradius 62.4363
lwrist -8.33339
lhand -43.5205 -21.6456
lfingers 7.12502
lthumb -16.3596 7.68441
rfemur -20.5318 -4.662 28.6005
rtibia 50.7278
rfoot -15.0658 -5.74336
rtoes -14.028
lfemur -41.3498 4.01783 -15.3737
ltibia 39.4097
lfoot -5.0407 3.19318
ltoes 7.32613
726
root -8.44352 16.8949 1.43696 -171.917 -6.17289 -173.448
lowerback 3.22155 0.674324 3.82725
upperback 5.17893 0.613548 -0.170047
thorax 3.59057 0.315521 -2.32715
lowerneck -11.9862 -0.418429 2.25353
upperneck 31.0986 -5.21941 3.84662
head 12.3398 -2.46636 0.143607
rclavicle 8.94531e-015 3.81667e-014
rhumerus -74.755 53.4148 -98.1159
rradius 105.524
rwrist -4.58046
rhand 15.5143 -27.8393
rfingers 7.12502
rthumb 40.3355 -52.9632
lclavicle 8.94531e-015 3.81667e-014
lhumerus -5.41442 -24.5353 81.5209
lradius 62.3341
lwrist -8.07718
lhand -42.8678 -20.2211
lfingers 7.12502
lthumb -15.731 9.15958
rfemur -20.2549 -4.73015 29.4398
rtibia 49.4433
rfoot -16.0366 -7.00736
rtoes -13.483
lfemur -42.1221 4.29826 -14.8087
ltibia 39.6775
lfoot -4.08106 3.19771
ltoes 6.67584
727
root -8.41891 16.9001 1.54649 -171.722 -5.98125 -173.065
lowerback 3.20822 0.78524 4.08139
upperback 5.17367 0.756651 -0.0341583
thorax 3.60651 0.392449 -2.32874
lowerneck -12.2131 -0.488849 2.10289
upperneck 31.0322 -5.29646 3.98743
head 12.3693 -2.4852 0.210942
rclavicle 1.98785e-016 -4.77083e-015
rhumerus -73.1648 54.8343 -96.1745
rradius 106.025
rwrist -5.07088
rhand 16.6914 -27.4163
rfingers 7.12502
rthumb 41.4413 -52.1908
lclavicle 1.98785e-016 -4.77083e-015
lhumerus -6.22941 -24.5203 81.7442
lradius 62.2287
lwrist -7.50594
lhand -42.4058 -17.6576
lfingers 7.12502
lthumb -15.286 11.7575
rfemur -20.1128 -4.83476 30.1464
rtibia 48.2464
rfoot -16.7737 -7.88557
rtoes -11.5631
lfemur -43.0386 4.61619 -14.4145
ltibia 40.0374
lfoot -3.17309 3.15142
ltoes 6.35213
728
root -8.40056 16.9066 1.65288 -171.549 -5.95663 -173.021
lowerback 3.14919 0.797402 4.16691
upperback 5.14204 0.777774 -0.0830251
thorax 3.61098 0.408936 -2.42658
lowerneck -12.0524 -0.475562 2.33171
upperneck 30.796 -5.25542 3.92146
head 12.2322 -2.44956 0.158089
rclavicle -4.37326e-015 3.18055e-015
rhumerus -71.5278 56.244 -94.3209
rradius 106.462
rwrist -5.34425
rhand 17.7336 -26.644
rfingers 7.12502
rthumb 42.4182 -51.0924
lclavicle -4.37326e-015 3.18055e-015
lhumerus -7.39522 -24.4668 81.9161
lradius 62.3658
lwrist -6.60379
lhand -41.8411 -15.299
lfingers 7.12502
lthumb -14.742 14.1568
rfemur -19.9828 -5.17468 30.4228
rtibia 47.2065
rfoot -17.4831 -8.64324
rtoes -10.5205
lfemur -43.9531 4.9347 -14.524
ltibia 40.5117
lfoot -2.31851 3.05124
ltoes 6.42836
729
root -8.37408 16.9 1.76759 -171.412 -5.74786 -172.765
lowerback 3.28967 0.904526 4.34036
upperback 5.10735 0.926745 -0.0378626
thorax 3.51058 0.485316 -2.4786
lowerneck -12.1465 -0.531023 2.31017
upperneck 30.7118 -5.33132 4.00739
head 12.2226 -2.46742 0.18395
rclavicle 2.10712e-014 -2.06736e-014
rhumerus -69.464 57.5407 -92.0539
rradius 106.855
rwrist -5.6086
rhand 18.894 -26.027
rfingers 7.12502
rthumb 43.5034 -50.0926
lclavicle 2.10712e-014 -2.06736e-014
lhumerus -8.44923 -24.576 82.0753
lradius 62.4642
lwrist -5.5796
lhand -41.3661 -12.7385
lfingers 7.12502
lthumb -14.2844 16.7502
rfemur -19.9813 -4.97504 30.9279
rtibia 46.2785
rfoot -17.9707 -9.34758
rtoes -9.14444
lfemur -44.9441 5.51463 -14.4012
ltibia 41.0618
lfoot -1.1811 2.90016
ltoes 6.88606
730
root -8.3459 16.8862 1.89052 -170.649 -4.83508 -172.454
lowerback 2.89049 1.28872 4.52573
upperback 4.8826 1.45568 -0.0714707
thorax 3.54768 0.765769 -2.60973
lowerneck -12.1001 -0.6022 2.45122
upperneck 30.4533 -5.34172 3.86492
head 12.0996 -2.46389 0.110709
rclavicle -1.07344e-014 1.51076e-014
rhumerus -67.3467 58.6004 -89.6842
rradius 107.319
rwrist -5.88552
rhand 19.5697 -25.8128
rfingers 7.12502
rthumb 44.134 -49.6455
lclavicle -1.07344e-014 1.51076e-014
lhumerus -9.54297 -24.822 82.2476
lradius 62.6165
lwrist -4.28642
lhand -40.9453 -10.1764
lfingers 7.12502
lthumb -13.8789 19.3405
rfemur -20.8153 -4.0924 31.3551
rtibia 45.5499
rfoot -18.2626 -9.52885
rtoes -8.23766
lfemur -46.6134 6.71835 -14.3699
ltibia 41.7882
lfoot 0.0900877 2.78283
ltoes 7.62823
